<svg xmlns="http://www.w3.org/2000/svg" viewBox="0 0 1200 900" role="img" aria-labelledby="title desc">
  <title id="title">Everyday wrap illustration</title>
  <desc id="desc">A warm illustration of a whole-grain wrap with fresh vegetables and leafy greens.</desc>
  <rect width="1200" height="900" fill="#f1ddc5"/>
  <circle cx="170" cy="130" r="230" fill="#d9e2cf"/>
  <circle cx="1120" cy="800" r="280" fill="#e2b079" opacity=".65"/>
  <ellipse cx="596" cy="725" rx="384" ry="70" fill="#674c36" opacity=".18"/>
  <path d="M349 279c102-84 391-88 500 15L760 702c-60 54-266 54-326-7L349 279Z" fill="#d7ad72" stroke="#573e2d" stroke-width="18" stroke-linejoin="round"/>
  <path d="M373 311c93-89 343-94 454 6-76 108-374 109-454-6Z" fill="#fff7df" stroke="#573e2d" stroke-width="15"/>
  <g stroke="#344e3e" stroke-width="10" stroke-linejoin="round">
    <path d="M413 320c-10-130 117-152 174-49 48-104 175-59 150 57-80 64-242 60-324-8Z" fill="#6e9966"/>
    <path d="M521 324c-22-96 95-138 145-49 65-77 153-5 106 74-87 42-183 32-251-25Z" fill="#85aa72"/>
  </g>
  <g fill="#c75e48" stroke="#863d31" stroke-width="8">
    <circle cx="493" cy="339" r="48"/><circle cx="716" cy="338" r="50"/>
  </g>
  <path d="M430 369c110 61 257 56 349-3" fill="none" stroke="#e6d09d" stroke-width="44" stroke-linecap="round"/>
  <path d="M435 421c91 42 237 43 328-2" fill="none" stroke="#ba6848" stroke-width="40" stroke-linecap="round"/>
  <g fill="none" stroke="#b08550" stroke-width="7" stroke-linecap="round" opacity=".75">
    <path d="m498 500 62 35M663 486l-58 45M492 604l70-28M678 584l-58 43"/>
  </g>
  <path d="M349 279c31 198 32 344 85 416M849 294c-40 191-42 340-89 408" fill="none" stroke="#573e2d" stroke-width="18" stroke-linecap="round"/>
  <path d="M260 668c-37-97-48-197-30-300" fill="none" stroke="#344e3e" stroke-width="11" stroke-linecap="round"/>
  <g fill="#769e68" stroke="#344e3e" stroke-width="8">
    <path d="M236 450c-78-5-91 80-71 117 62-8 88-64 71-117Z"/><path d="M228 390c65-47 118 10 123 55-54 30-110 0-123-55Z"/>
  </g>
</svg>
